<svg version="1.1" id="Capa_1" xmlns="http://www.w3.org/2000/svg" x="0px" y="0px" viewBox="0 0 512 512" style="enable-background:new 0 0 512 512;"
						    xml:space="preserve">
							<g>
								<g>
									<path d="M475.32,458.88v-74.427c12.916-1.862,22.874-12.998,22.874-26.421c0-14.722-11.978-26.699-26.699-26.699h-14.629
	   c1.731-3.535,2.706-7.505,2.706-11.699c0-13.423-9.958-24.558-22.874-26.42v-74.428c12.916-1.862,22.874-12.998,22.874-26.421
	   c0-14.722-11.978-26.698-26.699-26.698h-20.146c1.731-3.535,2.706-7.505,2.706-11.699c0-13.423-9.958-24.559-22.874-26.421V53.12
	   c12.916-1.862,22.874-12.998,22.874-26.421c0-14.721-11.978-26.699-26.7-26.699H181.081C134.48,0,96.567,37.913,96.567,84.515
	   v11.638c0,28.847,14.536,54.352,36.659,69.609c-44.883,1.953-80.798,39.065-80.798,84.419v11.639
	   c0,29.066,14.752,54.749,37.159,69.964c-42.513,4.385-75.781,40.411-75.781,84.064v11.638C13.806,474.087,51.719,512,98.32,512
	   h373.175c14.722,0,26.699-11.978,26.699-26.699C498.194,471.878,488.236,460.741,475.32,458.88z M471.495,497H98.32
	   c-38.33,0-69.515-31.185-69.515-69.515v-11.638c0-38.33,31.185-69.515,69.515-69.515h74.194c4.143,0,7.5-3.357,7.5-7.5
	   s-3.357-7.5-7.5-7.5h-35.572c-38.33,0-69.515-31.184-69.515-69.514v-11.639c0-38.33,31.185-69.514,69.515-69.514h199.073
	   c4.143,0,7.5-3.357,7.5-7.5s-3.357-7.5-7.5-7.5H181.081c-38.33,0-69.514-31.185-69.514-69.515V84.515
	   c0-38.33,31.184-69.515,69.514-69.515h207.652c6.451,0,11.699,5.248,11.699,11.699c0,6.451-5.248,11.699-11.699,11.699H186.9
	   c-28.637,0-51.935,23.298-51.935,51.935c0,28.638,23.298,51.936,51.935,51.936h201.833c6.451,0,11.699,5.248,11.699,11.699
	   s-5.248,11.699-11.699,11.699h-24.718c-4.143,0-7.5,3.357-7.5,7.5s3.357,7.5,7.5,7.5h68.857c6.451,0,11.699,5.248,11.699,11.699
	   c0,6.45-5.248,11.698-11.699,11.698H142.761c-28.637,0-51.935,23.298-51.935,51.936s23.298,51.936,51.935,51.936h290.112
	   c6.451,0,11.699,5.248,11.699,11.699c0,6.45-5.248,11.698-11.699,11.698H200.516c-4.143,0-7.5,3.357-7.5,7.5s3.357,7.5,7.5,7.5
	   h270.979c6.451,0,11.699,5.248,11.699,11.699c0,6.451-5.248,11.699-11.699,11.699H104.139c-28.637,0-51.935,23.298-51.935,51.936
	   c0,28.637,23.298,51.935,51.935,51.935h367.356c6.451,0,11.699,5.248,11.699,11.699C483.194,491.752,477.946,497,471.495,497z
		M150.733,82.833c3.475-16.782,18.371-29.435,36.168-29.435h190.658v29.435H150.733z M377.559,97.833v29.436H186.9
	   c-17.797,0-32.692-12.653-36.168-29.436H377.559z M106.593,248.5c3.475-16.782,18.371-29.436,36.168-29.436h278.938V248.5H106.593
	   z M421.698,263.5v29.436H142.761c-17.797,0-32.692-12.653-36.168-29.436H421.698z M67.971,414.167
	   c3.475-16.782,18.371-29.436,36.168-29.436H460.32v29.436H67.971z M460.32,429.167v29.435H104.139
	   c-17.797,0-32.692-12.652-36.168-29.435H460.32z" fill="rgb(50, 50, 50)"/>
								</g>
							</g>
							<g>
							</g>
							<g>
							</g>
							<g>
							</g>
							<g>
							</g>
							<g>
							</g>
							<g>
							</g>
							<g>
							</g>
							<g>
							</g>
							<g>
							</g>
							<g>
							</g>
							<g>
							</g>
							<g>
							</g>
							<g>
							</g>
							<g>
							</g>
							<g>
							</g>
						</svg>