<svg viewBox="0 0 512 512" xmlns="http://www.w3.org/2000/svg"
height="100%" width="100%"
><path d="m257 90h180c8.285156 0 15-6.714844 15-15s-6.714844-15-15-15h-180c-8.285156 0-15 6.714844-15 15s6.714844 15 15 15zm0 0"/><path d="m89.972656 75c0 8.285156-6.71875 15-15 15-8.285156 0-15-6.714844-15-15s6.714844-15 15-15c8.28125 0 15 6.714844 15 15zm0 0"/><path d="m149.972656 75c0 8.285156-6.71875 15-15 15-8.285156 0-15-6.714844-15-15s6.714844-15 15-15c8.28125 0 15 6.714844 15 15zm0 0"/><path d="m209.972656 75c0 8.285156-6.71875 15-15 15-8.285156 0-15-6.714844-15-15s6.714844-15 15-15c8.28125 0 15 6.714844 15 15zm0 0"/><path d="m512 436.996094v-391.996094c0-24.8125-20.1875-45-45-45h-422c-24.8125 0-45 20.1875-45 45v422c0 24.8125 20.1875 45 45 45h422c24.8125 0 45-20.1875 45-45v-29.996094zm-225 45.003906c-8.269531 0-15-6.730469-15-15v-15h150v15c0 8.269531-6.730469 15-15 15zm135-60h-150v-68.332031l34.464844 34.007812c5.867187 5.792969 15.308594 5.761719 21.140625-.070312l49.394531-49.390625 45 45zm-34.394531-115.605469c-5.855469-5.859375-15.355469-5.859375-21.210938 0l-49.464843 49.460938-44.929688-44.335938v-39.519531h150v68.785156zm34.394531-64.394531h-150v-15c0-8.269531 6.730469-15 15-15h120c8.269531 0 15 6.730469 15 15zm30-15c0-24.8125-20.1875-45-45-45h-120c-24.8125 0-45 20.1875-45 45v54.914062l-66.464844-65.589843c-5.867187-5.792969-15.3125-5.761719-21.140625.070312l-124.394531 124.390625v-190.785156h452v250.785156l-30-30zm-407-197h422c8.269531 0 15 6.730469 15 15v75h-452v-75c0-8.269531 6.730469-15 15-15zm-15 437v-83.785156l135.070312-135.070313 76.929688 75.917969v142.9375c0 5.257812.914062 10.304688 2.578125 15h-199.578125c-8.269531 0-15-6.730469-15-15zm437 15h-17.578125c1.664063-4.695312 2.578125-9.742188 2.578125-15v-53.785156l30 30v23.785156c0 8.269531-6.730469 15-15 15zm0 0"/></svg>