<svg xmlns="http://www.w3.org/2000/svg" width="100%" height="100%" viewBox="0 0 34.25 34.25" style="enable-background:new 0 0 34.25 34.25;">
							<g>
								<g>
									<rect width="5.185" height="5.275" fill="#FFDA44" />
									<rect x="7.132" width="5.187" height="5.275" fill="#FFDA44" />
									<rect x="14.266" width="5.185" height="5.275" fill="#FFDA44" />
									<rect x="21.398" width="5.185" height="5.275" fill="#FFDA44" />
									<rect x="29.064" width="5.186" height="5.275" fill="#FFDA44" />
									<rect y="7.244" width="5.185" height="5.274" fill="#FFDA44" />
									<rect x="7.132" y="7.244" width="5.187" height="5.274" fill="#FFDA44" />
									<rect x="14.266" y="7.244" width="5.185" height="5.274" fill="#FFDA44" />
									<rect x="21.398" y="7.244" width="5.185" height="5.274" fill="#FFDA44" />
									<rect x="29.064" y="7.244" width="5.186" height="5.274" fill="#FFDA44" />
									<rect y="14.487" width="5.185" height="5.275" fill="#FFDA44" />
									<rect x="7.132" y="14.487" width="5.187" height="5.275" fill="#FFDA44" />
									<rect x="14.266" y="14.487" width="5.185" height="5.275" fill="#FFDA44" />
									<rect x="21.398" y="14.487" width="5.185" height="5.275" fill="#FFDA44" />
									<rect x="29.064" y="14.487" width="5.186" height="5.275" fill="#FFDA44" />
									<rect y="21.73" width="5.185" height="5.274" fill="#FFDA44" />
									<rect x="7.132" y="21.73" width="5.187" height="5.274" fill="#FFDA44" />
									<rect x="14.266" y="21.73" width="5.185" height="5.274" fill="#FFDA44" />
									<rect x="21.398" y="21.73" width="5.185" height="5.274" fill="#FFDA44" />
									<rect x="29.064" y="21.73" width="5.186" height="5.274" fill="#FFDA44" />
									<rect y="28.975" width="5.185" height="5.275" fill="#FFDA44" />
									<rect x="7.132" y="28.975" width="5.187" height="5.275" fill="#FFDA44" />
									<rect x="14.266" y="28.975" width="5.185" height="5.275" fill="#FFDA44" />
									<rect x="21.398" y="28.975" width="5.185" height="5.275" fill="#FFDA44" />
									<rect x="29.064" y="28.975" width="5.186" height="5.275" fill="#FFDA44" />
								</g>
							</g>
							<g>
							</g>
							<g>
							</g>
							<g>
							</g>
							<g>
							</g>
							<g>
							</g>
							<g>
							</g>
							<g>
							</g>
							<g>
							</g>
							<g>
							</g>
							<g>
							</g>
							<g>
							</g>
							<g>
							</g>
							<g>
							</g>
							<g>
							</g>
							<g>
							</g>
						</svg>
